<?xml version="1.0" standalone="no"?>
<!DOCTYPE svg PUBLIC "-//W3C//DTD SVG 20010904//EN"
 "http://www.w3.org/TR/2001/REC-SVG-20010904/DTD/svg10.dtd">
<svg version="1.0" xmlns="http://www.w3.org/2000/svg"
 width="59.000000pt" height="102.000000pt" viewBox="0 0 59.000000 102.000000"
 preserveAspectRatio="xMidYMid meet">
<metadata>
Created by potrace 1.15, written by Peter Selinger 2001-2017
</metadata>
<g transform="translate(0.000000,102.000000) scale(0.100000,-0.100000)"
fill="#000000" stroke="none">
<path d="M110 656 c0 -74 -3 -141 -6 -150 -5 -12 0 -16 20 -16 16 0 26 6 26
15 0 9 -6 12 -15 9 -8 -4 -15 -1 -15 4 0 15 17 24 24 14 3 -5 19 -9 37 -10 42
-1 45 -6 30 -48 -9 -26 -10 -39 -2 -47 6 -6 11 -17 11 -25 0 -21 -53 -10 -65
14 l-10 21 -17 -22 c-14 -19 -17 -51 -18 -201 -2 -223 -2 -214 10 -214 6 0 10
32 10 76 0 67 2 75 15 64 12 -10 15 -9 15 5 0 14 6 16 42 10 23 -4 50 -16 61
-26 11 -10 23 -17 26 -14 15 9 33 -15 36 -46 1 -19 6 -42 10 -51 8 -20 25 -24
25 -7 0 7 8 18 18 25 16 13 16 13 -3 14 -19 1 -19 1 -2 11 11 7 16 17 12 29
-5 15 1 19 35 25 61 10 88 40 99 105 13 75 22 282 13 277 -4 -3 -8 28 -8 68
-2 77 -20 127 -53 145 -25 13 -54 13 -46 0 3 -5 1 -10 -4 -10 -6 0 -11 -4 -11
-9 0 -5 8 -7 19 -4 11 3 21 -2 24 -11 4 -9 14 -16 24 -16 17 -1 16 -2 -1 -15
-19 -15 -19 -15 3 -15 l22 0 -25 -32 c-13 -18 -34 -55 -45 -83 l-20 -50 0 53
c-1 28 -5 52 -11 52 -13 0 -10 150 4 150 6 0 3 5 -6 11 -10 5 -18 17 -18 25 0
11 -7 13 -27 7 -16 -4 -65 -7 -110 -7 -86 1 -95 -4 -69 -38 14 -19 52 -24 58
-9 2 5 18 12 37 16 23 5 31 4 27 -4 -4 -6 -13 -11 -20 -11 -7 0 -21 -9 -31
-20 -10 -11 -22 -17 -27 -14 -4 3 -22 3 -38 -1 -26 -6 -30 -11 -30 -41 0 -20
5 -44 10 -55 8 -15 7 -19 -4 -19 -10 0 -13 6 -9 17 4 11 3 14 -5 9 -18 -11
-25 38 -19 125 4 49 3 79 -3 79 -6 0 -10 -54 -10 -134z"/>
</g>
</svg>
